<?xml version="1.0" encoding="UTF-8" standalone="no"?>
<!-- Created with Inkscape (http://www.inkscape.org/) -->

<svg
   version="1.1"
   id="svg1"
   width="500"
   height="500"
   viewBox="0 0 500 500"
   sodipodi:docname="upload_k7rx37ornt73byfunqfo5p7iym.pdf"
   xmlns:inkscape="http://www.inkscape.org/namespaces/inkscape"
   xmlns:sodipodi="http://sodipodi.sourceforge.net/DTD/sodipodi-0.dtd"
   xmlns="http://www.w3.org/2000/svg"
   xmlns:svg="http://www.w3.org/2000/svg">
  <defs
     id="defs1">
    <clipPath
       clipPathUnits="userSpaceOnUse"
       id="clipPath2">
      <path
         d="M 0,0 H 1562.5 V 1562.5 H 0 Z"
         transform="scale(0.31999999)"
         clip-rule="evenodd"
         id="path2" />
    </clipPath>
  </defs>
  <sodipodi:namedview
     id="namedview1"
     pagecolor="#ffffff"
     bordercolor="#000000"
     borderopacity="0.25"
     inkscape:showpageshadow="2"
     inkscape:pageopacity="0.0"
     inkscape:pagecheckerboard="0"
     inkscape:deskcolor="#d1d1d1">
    <inkscape:page
       x="0"
       y="0"
       inkscape:label="1"
       id="page1"
       width="500"
       height="500"
       margin="0"
       bleed="0" />
  </sodipodi:namedview>
  <g
     id="g1"
     inkscape:groupmode="layer"
     inkscape:label="1">
    <path
       id="path1"
       d="M 0,0 H 500 V 500 H 0 Z"
       style="fill:#ffffff;fill-opacity:1;fill-rule:nonzero;stroke:none"
       clip-path="url(#clipPath2)" />
    <g
       id="g2">
      <path
         id="path3"
         d="M 0,0 H 500 V 500 H 0 Z"
         style="fill:#e7ebe6;fill-opacity:1;fill-rule:nonzero;stroke:none" />
    </g>
    <g
       id="g3">
      <g
         id="g4">
        <path
           id="path4"
           d="m 43.281254,-56.639814 c -0.21875,1.867188 -0.371094,3.679688 -0.453125,5.4375 -0.07422,1.761719 -0.109375,3.09375 -0.109375,4 0,0.960938 0.02344,1.882813 0.07813,2.765625 0.05078,0.875 0.101563,1.609376 0.15625,2.203126 h -1.828125 c -0.324219,-3.144532 -0.78125,-5.640626 -1.375,-7.484376 -0.585937,-1.84375 -1.585937,-3.148437 -3,-3.921875 -1.40625,-0.769531 -3.523438,-1.15625 -6.34375,-1.15625 h -6.640626 c -1.8125,0 -3.1875,0.148438 -4.125,0.4375 -0.9375,0.292969 -1.570312,0.90625 -1.890625,1.84375 -0.3125,0.929688 -0.46875,2.382813 -0.46875,4.359375 v 39.6718769 c 0,1.9296876 0.15625,3.3710939 0.46875,4.3281252 0.320313,0.9609376 0.953125,1.5859376 1.890625,1.8750001 0.9375,0.2929688 2.3125,0.4375 4.125,0.4375 h 5.828126 c 3.363281,0 5.910156,-0.453125 7.640625,-1.359375 1.738281,-0.9062501 2.992188,-2.3828126 3.765625,-4.4375002 0.769531,-2.0507814 1.34375,-4.835938 1.71875,-8.359375 h 1.84375 c -0.167968,1.4375 -0.25,3.359375 -0.25,5.765625 0,1.0117187 0.03906,2.4648437 0.125,4.359375 0.08203,1.8867189 0.226563,3.8437502 0.4375,5.87500028535 C 42.156254,-0.10074922 39.085942,-0.16324922 35.671879,-0.18668672 c -3.40625,-0.03125 -6.445313,-0.046875 -9.109375,-0.046875 -1.179688,0 -2.687501,0 -4.531251,0 -1.835937,0 -3.820312,0.015625 -5.953125,0.046875 -2.136719,0.0234375 -4.296875,0.046875 -6.4843751,0.078125 -2.1875001,0.0234375 -4.2656252,0.05859375 -6.2343753,0.10937500535 V -1.5929368 c 1.8125001,-0.1132812 3.1796876,-0.328125 4.1093752,-0.640625 0.9375,-0.3203125 1.5664063,-0.9609375 1.8906251,-1.9218751 0.3203125,-0.9570313 0.484375,-2.3984376 0.484375,-4.3281252 V -48.155439 c 0,-1.976562 -0.1640625,-3.429687 -0.484375,-4.359375 -0.3242188,-0.9375 -0.9531251,-1.578125 -1.8906251,-1.921875 -0.9296876,-0.34375 -2.2968751,-0.546875 -4.1093752,-0.609375 v -1.59375 c 1.9687501,0.05469 4.0468752,0.09375 6.2343753,0.125 2.1875001,0.02344 4.3476561,0.04687 6.4843751,0.07813 2.132813,0.02344 4.117188,0.03125 5.953125,0.03125 1.84375,0 3.351563,0 4.531251,0 2.445312,0 5.226562,-0.0078 8.34375,-0.03125 3.125,-0.03125 5.914063,-0.09766 8.375,-0.203125 z m -13.765625,27.359376 c 0,0 0,0.265625 0,0.796875 0,0.53125 0,0.796875 0,0.796875 H 14.875003 c 0,0 0,-0.265625 0,-0.796875 0,-0.53125 0,-0.796875 0,-0.796875 z m 2.328125,-10.5625 c -0.21875,3.042969 -0.320313,5.367187 -0.296875,6.96875 0.03125,1.59375 0.04687,3.058594 0.04687,4.390625 0,1.335938 0.02344,2.804688 0.07813,4.40625 0.0625,1.59375 0.195312,3.914063 0.40625,6.953126 h -1.84375 c -0.210938,-1.707032 -0.460938,-3.375001 -0.75,-5.000001 -0.292969,-1.625 -0.933594,-2.957031 -1.921875,-4 -0.992188,-1.039062 -2.656251,-1.5625 -5.000001,-1.5625 v -1.59375 c 1.757813,0 3.101563,-0.359375 4.031251,-1.078125 0.9375,-0.71875 1.617187,-1.632813 2.046875,-2.75 0.425781,-1.125 0.71875,-2.285156 0.875,-3.484375 0.164062,-1.207032 0.328125,-2.289063 0.484375,-3.25 z m 46.562502,-17.921876 c 3.507812,0 6.398437,0.523437 8.671875,1.5625 2.269531,1.042969 4.285157,2.257813 6.046875,3.640625 1.0625,0.804688 1.875,0.898438 2.4375,0.28125 0.5625,-0.613281 0.945313,-2.066406 1.15625,-4.359375 h 1.843751 c -0.105469,1.96875 -0.1875,4.371094 -0.25,7.203125 -0.05469,2.824219 -0.07813,6.558594 -0.07813,11.203126 h -1.828126 c -0.375,-2.300782 -0.726562,-4.128907 -1.046875,-5.484376 -0.324218,-1.363281 -0.714843,-2.523437 -1.171875,-3.484375 -0.449218,-0.957031 -1.042968,-1.914062 -1.78125,-2.875 -1.65625,-2.1875 -3.742187,-3.769531 -6.25,-4.75 -2.5,-0.988281 -5.140625,-1.484375 -7.921875,-1.484375 -2.617188,0 -4.976563,0.652344 -7.078126,1.953125 -2.105468,1.304688 -3.917968,3.183594 -5.4375,5.640625 -1.523437,2.449219 -2.699219,5.40625 -3.53125,8.875001 -0.824219,3.46875 -1.234375,7.367187 -1.234375,11.6875 0,4.480469 0.453125,8.4375 1.359375,11.875001 0.90625,3.4375 2.171875,6.3359374 3.796875,8.6875 1.632813,2.3437501 3.554688,4.1171876 5.765625,5.3125002 2.218751,1.1992188 4.601563,1.79687507 7.156251,1.79687507 2.40625,0 4.914062,-0.47656252 7.53125,-1.43750007 2.613281,-0.9570313 4.664063,-2.5039063 6.15625,-4.6406252 1.175782,-1.5390626 1.988282,-3.2187501 2.4375,-5.03125 0.457032,-1.8125 0.875,-4.347657 1.25,-7.609376 h 1.828126 c 0,4.855469 0.02344,8.76172 0.07813,11.718751 0.0625,2.9609376 0.144531,5.4531252 0.25,7.48437528535 H 96.718756 C 96.507819,-2.2882493 96.148444,-3.7257494 95.640631,-4.3116869 c -0.511718,-0.59375 -1.351562,-0.515625 -2.515625,0.234375 -1.980468,1.3867188 -4.078125,2.6015626 -6.296875,3.64062517 -2.210938,1.03906254 -5.046875,1.56250003 -8.515625,1.56250003 -5.0625,0 -9.500001,-1.14453127 -13.312501,-3.4375001 -3.8125,-2.3007814 -6.777344,-5.6093752 -8.890625,-9.9218752 -2.105469,-4.320313 -3.15625,-9.523438 -3.15625,-15.609376 0,-5.96875 1.09375,-11.191407 3.28125,-15.671876 2.1875,-4.476562 5.1875,-7.972656 9,-10.484375 3.8125,-2.507813 8.203126,-3.765625 13.171876,-3.765625 z m 55.042974,0 c 5.0625,0 9.5,1.152344 13.3125,3.453125 3.8125,2.292969 6.76953,5.585938 8.875,9.875 2.11328,4.292969 3.17187,9.507813 3.17187,15.640626 0,5.96875 -1.08593,11.195313 -3.25,15.671876 -2.15625,4.4804687 -5.15625,7.9765626 -9,10.4843752 -3.83594,2.51171883 -8.23437,3.7656251 -13.20312,3.7656251 -5.0625,0 -9.5,-1.14453127 -13.3125,-3.4375001 -3.8125,-2.3007814 -6.77735,-5.6093752 -8.89063,-9.9218752 -2.10547,-4.320313 -3.15625,-9.523438 -3.15625,-15.609376 0,-5.96875 1.09375,-11.191407 3.28125,-15.671876 2.1875,-4.476562 5.1875,-7.972656 9,-10.484375 3.8125,-2.507813 8.20313,-3.765625 13.17188,-3.765625 z m -0.32813,1.453125 c -3.46875,0 -6.48437,1.199219 -9.04687,3.59375 -2.55469,2.398438 -4.53907,5.703125 -5.95313,9.921876 -1.41797,4.210937 -2.125,9.089844 -2.125,14.640625 0,5.648438 0.78516,10.562501 2.35938,14.750001 1.57031,4.1874999 3.70703,7.4179688 6.40625,9.6875001 2.69531,2.2734376 5.67187,3.40625017 8.92187,3.40625017 3.46875,0 6.47656,-1.19531257 9.03125,-3.59375017 2.5625,-2.4062501 4.55078,-5.7265627 5.96875,-9.9687501 1.41406,-4.238282 2.125,-9.109376 2.125,-14.609376 0,-5.707031 -0.79297,-10.640625 -2.375,-14.796876 -1.57422,-4.15625 -3.69531,-7.363281 -6.35937,-9.625 -2.66797,-2.269531 -5.65235,-3.40625 -8.95313,-3.40625 z m 0,0"
           style="fill:#5f8f7a;fill-opacity:1;fill-rule:nonzero;stroke:none"
           aria-label="ECO"
           transform="translate(59.062498,263.64762)" />
      </g>
      <g
         id="g5">
        <path
           id="path5"
           d="m 66.312512,-56.639814 v 1.59375 c -1.8125,0.0625 -3.1875,0.265625 -4.125,0.609375 -0.929688,0.34375 -1.554688,0.984375 -1.875,1.921875 -0.3125,0.929688 -0.46875,2.382813 -0.46875,4.359375 v 39.6718769 c 0,1.9296876 0.15625,3.3710939 0.46875,4.3281252 0.320312,0.9609376 0.945312,1.6015626 1.875,1.9218751 0.9375,0.3125 2.3125,0.5273438 4.125,0.640625 V 8.1328535e-4 C 65.093762,-0.10074922 63.562512,-0.16324922 61.718762,-0.18668672 c -1.84375,-0.03125 -3.699219,-0.046875 -5.5625,-0.046875 -2.074219,0 -4.023438,0.015625 -5.843751,0.046875 -1.8125,0.0234375 -3.277344,0.0859375 -4.390625,0.18750000535 V -1.5929368 c 1.8125,-0.1132812 3.179688,-0.328125 4.109375,-0.640625 0.9375,-0.3203125 1.566407,-0.9609375 1.890625,-1.9218751 0.320313,-0.9570313 0.484375,-2.3984376 0.484375,-4.3281252 V -52.483564 l 0.3125,0.25 -19.59375,52.6406273 h -1.28125 L 11.68751,-51.514814 v 42.2343769 c 0,1.9179688 0.171875,3.4218751 0.515625,4.5156252 0.34375,1.09375 1.035156,1.8710938 2.078125,2.3281251 1.039062,0.4492188 2.597656,0.7304688 4.671875,0.84375 V 8.1328535e-4 C 17.992197,-0.10074922 16.738291,-0.16324922 15.18751,-0.18668672 c -1.542969,-0.03125 -3.007813,-0.046875 -4.390625,-0.046875 -1.3359379,0 -2.6835942,0.015625 -4.0468755,0.046875 -1.3554688,0.0234375 -2.4843751,0.0859375 -3.3906251,0.18750000535 V -1.5929368 c 1.8125,-0.1132812 3.1796876,-0.3945312 4.1093751,-0.84375 0.9375001,-0.4570313 1.5664064,-1.2343751 1.8906251,-2.3281251 0.3203125,-1.0937501 0.484375,-2.5976564 0.484375,-4.5156252 V -48.155439 c 0,-1.976562 -0.1640625,-3.429687 -0.484375,-4.359375 -0.3242187,-0.9375 -0.953125,-1.578125 -1.8906251,-1.921875 -0.9296875,-0.34375 -2.2968751,-0.546875 -4.1093751,-0.609375 v -1.59375 c 0.90625,0.05469 2.0351563,0.105469 3.3906251,0.15625 1.3632813,0.05469 2.7109376,0.07813 4.0468755,0.07813 1.175781,0 2.390625,-0.02344 3.640625,-0.07813 1.25,-0.05078 2.300781,-0.101563 3.15625,-0.15625 l 18.171876,47.8437519 -1.359375,0.640625 18,-48.2500019 c 0.632813,0 1.257813,0 1.875,0 0.613282,0 1.238282,0 1.875001,0 1.863281,0 3.71875,-0.02344 5.5625,-0.07813 1.84375,-0.05078 3.375,-0.101563 4.59375,-0.15625 z m 29.210939,-0.40625 19.515629,50.328127 c 0.80078,2.0234376 1.70703,3.3671876 2.71875,4.0312502 1.00781,0.6679688 1.9414,1.03125 2.79687,1.09375 V 8.1328535e-4 C 119.4922,-0.10074922 118.18361,-0.16324922 116.63283,-0.18668672 c -1.54297,-0.03125 -3.08985,-0.046875 -4.64063,-0.046875 -2.07422,0 -4.01562,0.015625 -5.82812,0.046875 -1.8125,0.0234375 -3.28125,0.0859375 -4.40625,0.18750000535 V -1.5929368 c 2.71875,-0.1132812 4.45312,-0.5820313 5.20312,-1.40625 0.75,-0.8203126 0.58594,-2.5937501 -0.48437,-5.3125003 l -14.875004,-39.7656269 1.28125,-1.046875 -13.921876,36.171877 c -0.855469,2.125 -1.367188,3.9218749 -1.53125,5.390625 -0.15625,1.46875 -0.01172,2.6328126 0.4375,3.4843751 0.457031,0.8554688 1.234375,1.4687501 2.328125,1.8437501 1.09375,0.3671875 2.46875,0.578125 4.125,0.640625 V 8.1328535e-4 C 82.828138,-0.10074922 81.265638,-0.16324922 79.632825,-0.18668672 c -1.625,-0.03125 -3.132813,-0.046875 -4.515625,-0.046875 -1.335938,0 -2.46875,0.015625 -3.40625,0.046875 -0.929688,0.0234375 -1.792969,0.0859375 -2.59375,0.18750000535 V -1.5929368 c 1.070312,-0.2695312 2.164062,-0.8945313 3.28125,-1.8750001 1.125,-0.9882813 2.140625,-2.6875001 3.046875,-5.0937502 L 94.242201,-57.046064 c 0.207031,0 0.414062,0 0.625,0 0.21875,0 0.4375,0 0.65625,0 z m 9.749999,34.000001 v 1.609375 H 81.445325 l 0.796875,-1.609375 z m 16.56641,-33.593751 c 1.125,0.05469 2.59375,0.105469 4.40625,0.15625 1.8125,0.05469 3.59765,0.07813 5.35937,0.07813 2.5,0 4.89453,-0.02344 7.1875,-0.07813 2.30079,-0.05078 3.92969,-0.07813 4.89063,-0.07813 4.32031,0 7.90625,0.617187 10.75,1.84375 2.85156,1.230469 4.98828,2.898438 6.40625,5 1.41406,2.105469 2.125,4.464844 2.125,7.078126 0,1.605468 -0.32422,3.3125 -0.96875,5.125 -0.63672,1.8125 -1.74219,3.523437 -3.3125,5.125 -1.57422,1.59375 -3.71875,2.914063 -6.4375,3.953125 -2.71875,1.042969 -6.16406,1.5625 -10.32813,1.5625 h -7.67187 v -1.609375 h 6.875 c 3.78125,0 6.67187,-0.597656 8.67187,-1.796875 2,-1.195313 3.35938,-2.796875 4.07813,-4.796875 0.72656,-2 1.09375,-4.226563 1.09375,-6.6875 0,-4.207032 -1,-7.472657 -3,-9.796876 -2,-2.320312 -5.42969,-3.484375 -10.28125,-3.484375 -2.46094,0 -4.0625,0.460938 -4.8125,1.375 -0.74219,0.90625 -1.10938,2.746094 -1.10938,5.515625 v 39.6718769 c 0,1.9296876 0.15625,3.3710939 0.46875,4.3281252 0.32032,0.9609376 0.95313,1.6015626 1.89063,1.9218751 0.9375,0.3125 2.3125,0.5273438 4.125,0.640625 V 8.1328535e-4 C 141.01564,-0.10074922 139.48048,-0.16324922 137.63673,-0.18668672 c -1.83593,-0.03125 -3.6875,-0.046875 -5.5625,-0.046875 -2.07422,0 -4.01562,0.015625 -5.82812,0.046875 -1.8125,0.0234375 -3.28125,0.0859375 -4.40625,0.18750000535 V -1.5929368 c 1.8125,-0.1132812 3.17969,-0.328125 4.10937,-0.640625 0.9375,-0.3203125 1.56641,-0.9609375 1.89063,-1.9218751 0.32031,-0.9570313 0.48437,-2.3984376 0.48437,-4.3281252 V -48.155439 c 0,-1.976562 -0.16406,-3.429687 -0.48437,-4.359375 -0.32422,-0.9375 -0.95313,-1.578125 -1.89063,-1.921875 -0.92968,-0.34375 -2.29687,-0.546875 -4.10937,-0.609375 z m 12.71875,28.406251 c 2.88281,0.105469 5.14844,0.226563 6.79687,0.359375 1.65625,0.125 3.00391,0.246094 4.04688,0.359375 1.03906,0.105469 2.03906,0.234375 3,0.390625 3.57031,0.59375 6.14453,1.679688 7.71875,3.25 1.57031,1.574219 2.73437,4.011719 3.48437,7.312501 l 2,8.1562499 c 0.53125,2.3554689 1.07032,4.0546877 1.625,5.0937502 0.5625,1.0312501 1.42969,1.5234376 2.60938,1.4687501 0.90625,-0.050781 1.66406,-0.34375 2.28125,-0.875 0.61328,-0.5312501 1.26563,-1.2500001 1.95313,-2.1562501 l 1.20312,0.875 c -1.11719,1.6562501 -2.27734,2.9296876 -3.48438,3.81250018 -1.19921,0.87500003 -2.89062,1.31250002 -5.07812,1.31250002 -1.96875,0 -3.70313,-0.58984374 -5.20313,-1.76562504 -1.49218,-1.17578126 -2.60546,-3.46875016 -3.34375,-6.87500026 l -1.76562,-8 c -0.48047,-2.289063 -1.02734,-4.273438 -1.64063,-5.953126 -0.61718,-1.6875 -1.46875,-3.007812 -2.5625,-3.96875 -1.09375,-0.957031 -2.71093,-1.4375 -4.84375,-1.4375 h -8.64062 z m 82.5625,-28.406251 c -0.21094,2.03125 -0.35547,3.996094 -0.4375,5.890625 -0.0859,1.886719 -0.125,3.335938 -0.125,4.34375 0,1.28125 0.0234,2.484375 0.0781,3.609376 0.0508,1.117187 0.10937,2.101562 0.17187,2.953125 h -1.84375 c -0.375,-3.726563 -0.88672,-6.671876 -1.53125,-8.828126 -0.63672,-2.164062 -1.75781,-3.726562 -3.35937,-4.6875 -1.59375,-0.957031 -4.07422,-1.4375 -7.4375,-1.4375 h -4.3125 v 45.5156269 c 0,2.1367188 0.19531,3.7421877 0.59375,4.8125002 0.40625,1.0625 1.1914,1.7812501 2.35937,2.1562501 1.17578,0.3671875 2.88281,0.6054688 5.125,0.71875 V 8.1328535e-4 C 205.01564,-0.10074922 203.25392,-0.16324922 201.12111,-0.18668672 c -2.13672,-0.03125 -4.29687,-0.046875 -6.48437,-0.046875 -2.39844,0 -4.65235,0.015625 -6.76563,0.046875 -2.10547,0.0234375 -3.79297,0.0859375 -5.0625,0.18750000535 V -1.5929368 c 2.23828,-0.1132812 3.94141,-0.3515625 5.10938,-0.71875 1.17578,-0.375 1.96093,-1.0937501 2.35937,-2.1562501 0.40625,-1.0703125 0.60938,-2.6757814 0.60938,-4.8125002 V -54.796064 h -4.32813 c -3.30469,0 -5.77344,0.480469 -7.40625,1.4375 -1.625,0.960938 -2.75781,2.523438 -3.39062,4.6875 -0.63672,2.15625 -1.14063,5.101563 -1.51563,8.828126 h -1.84375 c 0.10156,-0.851563 0.16406,-1.835938 0.1875,-2.953125 0.0312,-1.125001 0.0469,-2.328126 0.0469,-3.609376 0,-1.007812 -0.043,-2.457031 -0.125,-4.34375 -0.0742,-1.894531 -0.21875,-3.859375 -0.4375,-5.890625 2.25,0.05469 4.6914,0.105469 7.32812,0.15625 2.63281,0.05469 5.28516,0.07813 7.95313,0.07813 2.66406,0 5.09375,0 7.28125,0 2.1875,0 4.59765,0 7.23437,0 2.64453,0 5.30078,-0.02344 7.96875,-0.07813 2.66406,-0.05078 5.09375,-0.101563 7.28125,-0.15625 z m 0,0"
           style="fill:#000000;fill-opacity:1;fill-rule:nonzero;stroke:none"
           aria-label="MART"
           transform="translate(221.46874,263.64762)" />
      </g>
    </g>
    <g
       id="g6">
      <g
         id="g7">
        <path
           id="path7"
           d="m 6.7962063,0.26673351 c -1.1250001,0 -2.1093751,-0.19140626 -2.9531251,-0.56250002 C 3.0071436,-0.67076653 2.3587061,-1.1942041 1.8899561,-1.8738916 1.4290186,-2.5496729 1.1751123,-3.3465479 1.1243311,-4.2645167 h 2 c 0.039063,0.6171875 0.2265626,1.1328126 0.5625001,1.5468751 0.3320312,0.40625 0.7695312,0.7148438 1.3125,0.921875 0.5507813,0.2109375 1.1484376,0.3125 1.7968751,0.3125 0.71875,0 1.3515626,-0.1132812 1.9062501,-0.34375 0.5625,-0.2265625 1.0039063,-0.5507812 1.3281246,-0.96875 0.320313,-0.4140625 0.484375,-0.8945313 0.484375,-1.4375001 0,-0.4882812 -0.132812,-0.890625 -0.390625,-1.203125 C 9.8626127,-5.7567042 9.4993314,-6.0223293 9.0305814,-6.2332668 8.5696439,-6.440298 8.0462063,-6.6238918 7.4524563,-6.7801418 l -1.8437501,-0.515625 c -1.3359375,-0.3515625 -2.3515626,-0.859375 -3.0468751,-1.5156251 -0.6875,-0.65625 -1.03125,-1.5000001 -1.03125,-2.5312501 0,-0.882813 0.2265625,-1.65625 0.6875,-2.3125 0.46875,-0.65625 1.1015626,-1.164063 1.9062501,-1.53125 0.8125,-0.363281 1.7226563,-0.546875 2.7343751,-0.546875 1.0390625,0 1.9531251,0.1875 2.7343751,0.5625 0.7890626,0.367187 1.4101566,0.871094 1.8593746,1.515625 0.445313,0.648437 0.687501,1.382812 0.718751,2.203125 h -1.906251 c -0.08594,-0.800781 -0.4453121,-1.425781 -1.0781246,-1.875 -0.6367188,-0.445313 -1.4335938,-0.671875 -2.3906251,-0.671875 -0.6679688,0 -1.2578126,0.117187 -1.7656251,0.34375 -0.5,0.21875 -0.890625,0.523437 -1.171875,0.90625 -0.28125,0.375 -0.421875,0.8125 -0.421875,1.3125 0,0.5 0.1484375,0.914063 0.453125,1.234375 0.3125,0.3242188 0.6953125,0.5859376 1.15625,0.7812501 0.46875,0.1875 0.9296876,0.34375 1.3906251,0.46875 l 1.59375,0.4375 c 0.4882813,0.125 0.9882813,0.2929688 1.5000001,0.5000001 0.5195316,0.2109375 0.9999996,0.4804687 1.4374996,0.8125 0.4375,0.3242188 0.789063,0.7304688 1.062501,1.2187501 0.269531,0.4804687 0.40625,1.0625 0.40625,1.75 0,0.8554688 -0.226563,1.6250001 -0.671875,2.3125001 -0.449219,0.6796875 -1.093751,1.21484382 -1.9375006,1.60937509 C 8.9915189,0.071421 7.9837063,0.26673351 6.7962063,0.26673351 Z M 16.9798,-6.8582668 V 0.0011085 H 15.13605 V -15.514517 h 1.84375 v 6.7968751 h -0.375 c 0.351563,-1.0507813 0.859375,-1.8007811 1.515626,-2.2500001 0.65625,-0.457031 1.421875,-0.6875 2.296875,-0.6875 0.78125,0 1.46875,0.164063 2.0625,0.484375 0.601562,0.324219 1.070312,0.808594 1.40625,1.4531251 0.332031,0.6484375 0.5,1.4648438 0.5,2.4531251 v 7.2656253 h -1.859375 v -7.1250003 c 0,-0.90625 -0.234375,-1.6093751 -0.703125,-2.1093751 -0.460938,-0.5 -1.09375,-0.75 -1.90625,-0.75 -0.5625,0 -1.0625,0.1210937 -1.5,0.359375 -0.4375,0.2304688 -0.789063,0.578125 -1.046876,1.046875 -0.261718,0.4609376 -0.390625,1.0312501 -0.390625,1.7187501 z m 15.250001,7.10937531 c -1.042969,0 -1.960937,-0.24609376 -2.75,-0.73437503 -0.792969,-0.50000002 -1.40625,-1.19531258 -1.84375,-2.09375008 -0.4375,-0.8945313 -0.65625,-1.9296876 -0.65625,-3.1093751 0,-1.1953126 0.21875,-2.2421876 0.65625,-3.1406252 0.4375,-0.8945313 1.050781,-1.5859371 1.84375,-2.0781251 0.789063,-0.5 1.707031,-0.75 2.75,-0.75 1.050781,0 1.972656,0.25 2.765625,0.75 0.789063,0.492188 1.40625,1.1835938 1.84375,2.0781251 0.4375,0.8984376 0.65625,1.9453126 0.65625,3.1406252 0,1.1796875 -0.21875,2.2148438 -0.65625,3.1093751 -0.4375,0.8984375 -1.054687,1.59375006 -1.84375,2.09375008 -0.792969,0.48828127 -1.714844,0.73437503 -2.765625,0.73437503 z m 0,-1.65625011 c 0.769531,0 1.40625,-0.1914062 1.90625,-0.578125 0.5,-0.3945312 0.875,-0.9140625 1.125,-1.5625 0.25,-0.6445313 0.375,-1.3593751 0.375,-2.1406251 0,-0.7812501 -0.125,-1.5000001 -0.375,-2.1562501 -0.25,-0.6562501 -0.625,-1.1796876 -1.125,-1.5781251 -0.5,-0.3945313 -1.136719,-0.5937501 -1.90625,-0.5937501 -0.75,0 -1.375,0.1992188 -1.875,0.5937501 -0.5,0.3984375 -0.875,0.921875 -1.125,1.5781251 -0.25,0.6484375 -0.375,1.3671875 -0.375,2.1562501 0,0.78125 0.125,1.4960938 0.375,2.1406251 0.25,0.6484375 0.617188,1.1679688 1.109375,1.5625 0.5,0.3867188 1.128906,0.578125 1.890625,0.578125 z m 7.859375,5.7656253 V -11.498892 h 1.781251 v 1.8125001 h 0.171875 c 0.15625,-0.2578125 0.363281,-0.5390621 0.625,-0.8437501 0.257812,-0.300781 0.613281,-0.5625 1.0625,-0.78125 0.445312,-0.226562 1.015625,-0.34375 1.703125,-0.34375 0.976562,0 1.832031,0.246094 2.5625,0.734375 0.726562,0.480469 1.300781,1.1640626 1.71875,2.0468751 0.414062,0.8867188 0.625,1.9335939 0.625,3.1406252 0,1.21875 -0.210938,2.2773438 -0.625,3.1718751 -0.40625,0.8867188 -0.980469,1.57421881 -1.71875,2.06250008 -0.730469,0.49218752 -1.578125,0.73437503 -2.546875,0.73437503 -0.679688,0 -1.242188,-0.11328126 -1.6875,-0.32812501 -0.449219,-0.22656251 -0.808594,-0.50000003 -1.078125,-0.81250004 -0.261719,-0.31250006 -0.46875,-0.59765626 -0.625,-0.85937506 h -0.125 v 6.1250003 z m 5.078126,-5.7812503 c 0.707031,0 1.304687,-0.1875 1.796875,-0.5625 0.488281,-0.375 0.859375,-0.8828125 1.109375,-1.53125 0.257812,-0.6562501 0.390625,-1.3945314 0.390625,-2.2187501 0,-0.8320313 -0.125,-1.5664064 -0.375,-2.2031251 -0.25,-0.6445313 -0.621094,-1.1484376 -1.109375,-1.5156251 -0.492188,-0.375 -1.09375,-0.5625001 -1.8125,-0.5625001 -0.710938,0 -1.308594,0.1835938 -1.796875,0.5468751 -0.480469,0.3554688 -0.851563,0.8554688 -1.109375,1.5000001 -0.25,0.6367187 -0.375,1.3828125 -0.375,2.2343751 0,0.8554687 0.125,1.6054688 0.375,2.2500001 0.257812,0.6484375 0.632812,1.1523438 1.125,1.515625 0.488281,0.3671875 1.082031,0.546875 1.78125,0.546875 z M 64.00324,0.26673351 c -1.125,0 -2.109375,-0.19140626 -2.953125,-0.56250002 C 60.214177,-0.67076653 59.56574,-1.1942041 59.09699,-1.8738916 58.636052,-2.5496729 58.382146,-3.3465479 58.331365,-4.2645167 h 2 c 0.03906,0.6171875 0.226562,1.1328126 0.5625,1.5468751 0.332031,0.40625 0.769531,0.7148438 1.3125,0.921875 0.550781,0.2109375 1.148437,0.3125 1.796875,0.3125 0.71875,0 1.351562,-0.1132812 1.90625,-0.34375 0.5625,-0.2265625 1.003906,-0.5507812 1.328125,-0.96875 0.320313,-0.4140625 0.484375,-0.8945313 0.484375,-1.4375001 0,-0.4882812 -0.132812,-0.890625 -0.390625,-1.203125 -0.261719,-0.3203125 -0.625,-0.5859376 -1.09375,-0.7968751 -0.460937,-0.2070312 -0.984375,-0.390625 -1.578125,-0.546875 l -1.84375,-0.515625 c -1.335938,-0.3515625 -2.351563,-0.859375 -3.046875,-1.5156251 -0.6875,-0.65625 -1.03125,-1.5000001 -1.03125,-2.5312501 0,-0.882813 0.226562,-1.65625 0.6875,-2.3125 0.46875,-0.65625 1.101562,-1.164063 1.90625,-1.53125 0.8125,-0.363281 1.722656,-0.546875 2.734375,-0.546875 1.039062,0 1.953125,0.1875 2.734375,0.5625 0.789063,0.367187 1.410156,0.871094 1.859375,1.515625 0.445313,0.648437 0.6875,1.382812 0.71875,2.203125 h -1.90625 c -0.08594,-0.800781 -0.445312,-1.425781 -1.078125,-1.875 -0.636719,-0.445313 -1.433594,-0.671875 -2.390625,-0.671875 -0.667969,0 -1.257813,0.117187 -1.765625,0.34375 -0.5,0.21875 -0.890625,0.523437 -1.171875,0.90625 -0.28125,0.375 -0.421875,0.8125 -0.421875,1.3125 0,0.5 0.148437,0.914063 0.453125,1.234375 0.3125,0.3242188 0.695312,0.5859376 1.15625,0.7812501 0.46875,0.1875 0.929687,0.34375 1.390625,0.46875 l 1.59375,0.4375 c 0.488281,0.125 0.988281,0.2929688 1.5,0.5000001 0.519531,0.2109375 1,0.4804687 1.4375,0.8125 0.4375,0.3242188 0.789063,0.7304688 1.0625,1.2187501 0.269531,0.4804687 0.40625,1.0625 0.40625,1.75 0,0.8554688 -0.226562,1.6250001 -0.671875,2.3125001 -0.449219,0.6796875 -1.09375,1.21484382 -1.9375,1.60937509 C 66.198553,0.071421 65.19074,0.26673351 64.00324,0.26673351 Z M 72.343084,0.0011085 V -11.498892 h 1.796875 l 0.01563,2.5156251 h -0.171875 c 0.175781,-0.6015625 0.4375,-1.1015621 0.78125,-1.5000001 0.34375,-0.40625 0.742188,-0.707031 1.203125,-0.90625 0.457031,-0.207031 0.9375,-0.3125 1.4375,-0.3125 0.851563,0 1.550782,0.257813 2.09375,0.765625 0.539063,0.511719 0.882813,1.1718751 1.03125,1.9843751 h -0.28125 c 0.144532,-0.5625 0.394532,-1.046875 0.75,-1.4531251 0.363282,-0.414062 0.804688,-0.734375 1.328125,-0.953125 0.519532,-0.226562 1.085938,-0.34375 1.703126,-0.34375 0.675781,0 1.289062,0.148438 1.84375,0.4375 0.550781,0.292969 0.992187,0.734375 1.328125,1.3281251 0.332031,0.5859375 0.5,1.328125 0.5,2.2343751 V 0.0011085 H 85.84309 v -7.6718753 c 0,-0.8437501 -0.242188,-1.4414063 -0.71875,-1.7968751 -0.46875,-0.3632813 -1.015625,-0.5468751 -1.640626,-0.5468751 -0.523437,0 -0.976562,0.1093751 -1.359375,0.3281251 -0.375,0.21875 -0.667968,0.5234375 -0.875,0.90625 -0.210937,0.3867188 -0.3125,0.8242188 -0.3125,1.3125001 v 7.4687503 h -1.84375 v -7.8593753 c 0,-0.6445313 -0.21875,-1.1640626 -0.65625,-1.5625001 -0.429687,-0.3945313 -0.96875,-0.5937501 -1.625,-0.5937501 -0.460937,0 -0.890625,0.1054688 -1.296875,0.3125001 -0.398437,0.2109375 -0.71875,0.5273438 -0.96875,0.953125 -0.242187,0.4179688 -0.359375,0.9335938 -0.359375,1.5468751 v 7.2031253 z m 21.785157,0.25000001 c -0.742187,0 -1.40625,-0.13671876 -2,-0.40625002 -0.59375,-0.26953126 -1.070312,-0.66406252 -1.421875,-1.18750009 -0.34375,-0.53125 -0.515625,-1.1757813 -0.515625,-1.9375 0,-0.6562501 0.128906,-1.1875001 0.390625,-1.5937501 0.257813,-0.4140625 0.601563,-0.7421875 1.03125,-0.984375 0.4375,-0.2382813 0.921875,-0.4140626 1.453125,-0.5312501 0.53125,-0.125 1.066406,-0.21875 1.609375,-0.28125 0.695313,-0.09375 1.257813,-0.1601562 1.6875,-0.203125 0.425782,-0.050781 0.742188,-0.1328125 0.953125,-0.25 0.207032,-0.1132813 0.3125,-0.3164063 0.3125,-0.609375 v -0.0625 c 0,-0.46875 -0.09375,-0.8671876 -0.28125,-1.2031251 -0.1875,-0.3320312 -0.464843,-0.5859375 -0.828125,-0.765625 -0.355468,-0.1757813 -0.796875,-0.2656251 -1.328125,-0.2656251 -0.554687,0 -1.027344,0.089844 -1.421875,0.2656251 -0.386719,0.1679687 -0.703125,0.3867188 -0.953125,0.65625 -0.25,0.2617188 -0.421875,0.5429688 -0.515625,0.8437501 l -1.796875,-0.4687501 c 0.226563,-0.7070312 0.582031,-1.2695311 1.0625,-1.6875001 0.476563,-0.425781 1.03125,-0.738281 1.65625,-0.9375 0.625,-0.195312 1.265625,-0.296875 1.921875,-0.296875 0.445313,0 0.921875,0.05859 1.421875,0.171875 0.5,0.117188 0.96875,0.3125 1.40625,0.59375 0.4375,0.28125 0.796875,0.6875 1.078125,1.2187501 0.28125,0.5234375 0.421875,1.1953125 0.421875,2.0156251 v 7.6562503 h -1.828125 v -1.5781251 h -0.109375 c -0.125,0.2734375 -0.335937,0.5468751 -0.625,0.82812507 -0.28125,0.28125001 -0.652343,0.52343752 -1.109375,0.71875003 -0.460937,0.18750001 -1.015625,0.28125001 -1.671875,0.28125001 z m 0.296875,-1.64062511 c 0.695313,0 1.28125,-0.1328125 1.75,-0.40625 0.476563,-0.2695312 0.835938,-0.6171875 1.078125,-1.046875 0.25,-0.4257813 0.375,-0.8789063 0.375,-1.3593751 v -1.5625 c -0.08594,0.085937 -0.246093,0.1640625 -0.484375,0.234375 -0.242187,0.074219 -0.515625,0.1367187 -0.828125,0.1875 -0.3125,0.054687 -0.625,0.1015625 -0.9375,0.140625 -0.3125,0.042969 -0.574219,0.074219 -0.78125,0.09375 -0.449219,0.0625 -0.871094,0.1640625 -1.265625,0.296875 -0.386719,0.1367188 -0.699219,0.3359375 -0.9375,0.59375 -0.230469,0.25 -0.34375,0.59375 -0.34375,1.0312501 0,0.3867187 0.09766,0.7148437 0.296875,0.984375 0.207031,0.2734375 0.488281,0.4765625 0.84375,0.609375 0.351563,0.1367188 0.765625,0.203125 1.234375,0.203125 z m 8.191404,1.3906251 V -11.498892 h 1.78125 v 1.7656251 h 0.0937 c 0.21875,-0.5820311 0.58594,-1.0468751 1.10938,-1.3906251 0.53125,-0.351562 1.14062,-0.53125 1.82812,-0.53125 0.14453,0 0.30469,0.0078 0.48438,0.01563 0.1875,0 0.32812,0.0078 0.42187,0.01563 v 1.8593751 c -0.0547,-0.019531 -0.1875,-0.039063 -0.40625,-0.0625 -0.21875,-0.03125 -0.45312,-0.046875 -0.70312,-0.046875 -0.52344,0 -0.9961,0.1171875 -1.42188,0.34375 -0.41797,0.21875 -0.74609,0.53125 -0.98437,0.9375 -0.24219,0.3984376 -0.35938,0.8710938 -0.35938,1.4218751 v 7.1718753 z m 12.72657,-11.5000005 v 1.5781251 h -6 v -1.5781251 z m -4.21875,-2.8125 h 1.85937 v 11.3750004 c 0,0.4921875 0.0977,0.8515625 0.29688,1.078125 0.20703,0.2304688 0.55468,0.34375 1.04687,0.34375 0.125,0 0.27344,-0.00781 0.45313,-0.03125 0.1875,-0.019531 0.35937,-0.039063 0.51562,-0.0625 l 0.29688,1.5625001 c -0.1875,0.05078125 -0.40235,0.0859375 -0.64063,0.109375 -0.24219,0.03125 -0.47656,0.046875 -0.70312,0.046875 -1,0 -1.77344,-0.25000001 -2.3125,-0.75000003 -0.54297,-0.50781247 -0.8125,-1.22656257 -0.8125,-2.15625007 z m 7.82812,14.45312551 c -0.38672,0 -0.71484,-0.13671876 -0.98437,-0.40625002 -0.26172,-0.26953126 -0.39063,-0.59375003 -0.39063,-0.96875009 0,-0.3828125 0.12891,-0.7109375 0.39063,-0.984375 0.26953,-0.2695313 0.59765,-0.40625 0.98437,-0.40625 0.38281,0 0.71094,0.1367187 0.98438,0.40625 0.26953,0.2734375 0.40625,0.6015625 0.40625,0.984375 0,0.37500006 -0.13672,0.69921883 -0.40625,0.96875009 -0.27344,0.26953126 -0.60157,0.40625002 -0.98438,0.40625002 z m 15.5625,0.125 c -1.125,0 -2.10937,-0.19140626 -2.95312,-0.56250002 -0.83594,-0.37500002 -1.48438,-0.89843759 -1.95313,-1.57812509 -0.46094,-0.6757813 -0.71484,-1.4726563 -0.76562,-2.3906251 h 2 c 0.0391,0.6171875 0.22656,1.1328126 0.5625,1.5468751 0.33203,0.40625 0.76953,0.7148438 1.3125,0.921875 0.55078,0.2109375 1.14843,0.3125 1.79687,0.3125 0.71875,0 1.35156,-0.1132812 1.90625,-0.34375 0.5625,-0.2265625 1.00391,-0.5507812 1.32813,-0.96875 0.32031,-0.4140625 0.48437,-0.8945313 0.48437,-1.4375001 0,-0.4882812 -0.13281,-0.890625 -0.39062,-1.203125 -0.26172,-0.3203125 -0.625,-0.5859376 -1.09375,-0.7968751 -0.46094,-0.2070312 -0.98438,-0.390625 -1.57813,-0.546875 l -1.84375,-0.515625 c -1.33594,-0.3515625 -2.35156,-0.859375 -3.04687,-1.5156251 -0.6875,-0.65625 -1.03125,-1.5000001 -1.03125,-2.5312501 0,-0.882813 0.22656,-1.65625 0.6875,-2.3125 0.46875,-0.65625 1.10156,-1.164063 1.90625,-1.53125 0.8125,-0.363281 1.72265,-0.546875 2.73437,-0.546875 1.03906,0 1.95313,0.1875 2.73438,0.5625 0.78906,0.367187 1.41015,0.871094 1.85937,1.515625 0.44531,0.648437 0.6875,1.382812 0.71875,2.203125 h -1.90625 c -0.0859,-0.800781 -0.44531,-1.425781 -1.07812,-1.875 -0.63672,-0.445313 -1.4336,-0.671875 -2.39063,-0.671875 -0.66797,0 -1.25781,0.117187 -1.76562,0.34375 -0.5,0.21875 -0.89063,0.523437 -1.17188,0.90625 -0.28125,0.375 -0.42187,0.8125 -0.42187,1.3125 0,0.5 0.14843,0.914063 0.45312,1.234375 0.3125,0.3242188 0.69531,0.5859376 1.15625,0.7812501 0.46875,0.1875 0.92969,0.34375 1.39063,0.46875 l 1.59375,0.4375 c 0.48828,0.125 0.98828,0.2929688 1.5,0.5000001 0.51953,0.2109375 1,0.4804687 1.4375,0.8125 0.4375,0.3242188 0.78906,0.7304688 1.0625,1.2187501 0.26953,0.4804687 0.40625,1.0625 0.40625,1.75 0,0.8554688 -0.22657,1.6250001 -0.67188,2.3125001 -0.44922,0.6796875 -1.09375,1.21484382 -1.9375,1.60937509 -0.83594,0.38281251 -1.84375,0.57812502 -3.03125,0.57812502 z m 10.1836,-7.12500031 v 6.8593753 h -1.84375 V -15.514517 h 1.84375 v 6.7968751 h -0.375 c 0.35156,-1.0507813 0.85937,-1.8007811 1.51562,-2.2500001 0.65625,-0.457031 1.42188,-0.6875 2.29688,-0.6875 0.78125,0 1.46875,0.164063 2.0625,0.484375 0.60156,0.324219 1.07031,0.808594 1.40625,1.4531251 0.33203,0.6484375 0.5,1.4648438 0.5,2.4531251 v 7.2656253 h -1.85938 v -7.1250003 c 0,-0.90625 -0.23437,-1.6093751 -0.70312,-2.1093751 -0.46094,-0.5 -1.09375,-0.75 -1.90625,-0.75 -0.5625,0 -1.0625,0.1210937 -1.5,0.359375 -0.4375,0.2304688 -0.78907,0.578125 -1.04688,1.046875 -0.26172,0.4609376 -0.39062,1.0312501 -0.39062,1.7187501 z m 15.25,7.10937531 c -1.04297,0 -1.96094,-0.24609376 -2.75,-0.73437503 -0.79297,-0.50000002 -1.40625,-1.19531258 -1.84375,-2.09375008 -0.4375,-0.8945313 -0.65625,-1.9296876 -0.65625,-3.1093751 0,-1.1953126 0.21875,-2.2421876 0.65625,-3.1406252 0.4375,-0.8945313 1.05078,-1.5859371 1.84375,-2.0781251 0.78906,-0.5 1.70703,-0.75 2.75,-0.75 1.05078,0 1.97265,0.25 2.76562,0.75 0.78906,0.492188 1.40625,1.1835938 1.84375,2.0781251 0.4375,0.8984376 0.65625,1.9453126 0.65625,3.1406252 0,1.1796875 -0.21875,2.2148438 -0.65625,3.1093751 -0.4375,0.8984375 -1.05469,1.59375006 -1.84375,2.09375008 -0.79297,0.48828127 -1.71484,0.73437503 -2.76562,0.73437503 z m 0,-1.65625011 c 0.76953,0 1.40625,-0.1914062 1.90625,-0.578125 0.5,-0.3945312 0.875,-0.9140625 1.125,-1.5625 0.25,-0.6445313 0.375,-1.3593751 0.375,-2.1406251 0,-0.7812501 -0.125,-1.5000001 -0.375,-2.1562501 -0.25,-0.6562501 -0.625,-1.1796876 -1.125,-1.5781251 -0.5,-0.3945313 -1.13672,-0.5937501 -1.90625,-0.5937501 -0.75,0 -1.375,0.1992188 -1.875,0.5937501 -0.5,0.3984375 -0.875,0.921875 -1.125,1.5781251 -0.25,0.6484375 -0.375,1.3671875 -0.375,2.1562501 0,0.78125 0.125,1.4960938 0.375,2.1406251 0.25,0.6484375 0.61718,1.1679688 1.10937,1.5625 0.5,0.3867188 1.12891,0.578125 1.89063,0.578125 z m 7.85937,5.7656253 V -11.498892 h 1.78125 v 1.8125001 h 0.17188 c 0.15625,-0.2578125 0.36328,-0.5390621 0.625,-0.8437501 0.25781,-0.300781 0.61328,-0.5625 1.0625,-0.78125 0.44531,-0.226562 1.01562,-0.34375 1.70312,-0.34375 0.97656,0 1.83203,0.246094 2.5625,0.734375 0.72656,0.480469 1.30078,1.1640626 1.71875,2.0468751 0.41406,0.8867188 0.625,1.9335939 0.625,3.1406252 0,1.21875 -0.21094,2.2773438 -0.625,3.1718751 -0.40625,0.8867188 -0.98047,1.57421881 -1.71875,2.06250008 -0.73047,0.49218752 -1.57812,0.73437503 -2.54687,0.73437503 -0.67969,0 -1.24219,-0.11328126 -1.6875,-0.32812501 -0.44922,-0.22656251 -0.8086,-0.50000003 -1.07813,-0.81250004 -0.26172,-0.31250006 -0.46875,-0.59765626 -0.625,-0.85937506 h -0.125 v 6.1250003 z m 5.07813,-5.7812503 c 0.70703,0 1.30468,-0.1875 1.79687,-0.5625 0.48828,-0.375 0.85938,-0.8828125 1.10938,-1.53125 0.25781,-0.6562501 0.39062,-1.3945314 0.39062,-2.2187501 0,-0.8320313 -0.125,-1.5664064 -0.375,-2.2031251 -0.25,-0.6445313 -0.62109,-1.1484376 -1.10937,-1.5156251 -0.49219,-0.375 -1.09375,-0.5625001 -1.8125,-0.5625001 -0.71094,0 -1.3086,0.1835938 -1.79688,0.5468751 -0.48047,0.3554688 -0.85156,0.8554688 -1.10937,1.5000001 -0.25,0.6367187 -0.375,1.3828125 -0.375,2.2343751 0,0.8554687 0.125,1.6054688 0.375,2.2500001 0.25781,0.6484375 0.63281,1.1523438 1.125,1.515625 0.48828,0.3671875 1.08203,0.546875 1.78125,0.546875 z M 186.722,0.0011085 V -15.514517 h 9.59375 v 1.734375 h -7.625 v 5.0468751 h 7.09375 v 1.7500001 h -7.09375 v 5.2500002 h 7.70312 v 1.7343751 z m 17.18359,0.25000001 c -1.04297,0 -1.96094,-0.24609376 -2.75,-0.73437503 -0.79297,-0.50000002 -1.40625,-1.19531258 -1.84375,-2.09375008 -0.4375,-0.8945313 -0.65625,-1.9296876 -0.65625,-3.1093751 0,-1.1953126 0.21875,-2.2421876 0.65625,-3.1406252 0.4375,-0.8945313 1.05078,-1.5859371 1.84375,-2.0781251 0.78906,-0.5 1.70703,-0.75 2.75,-0.75 0.58203,0 1.125,0.07813 1.625,0.234375 0.50781,0.148438 0.96875,0.367188 1.375,0.65625 0.41406,0.292969 0.76562,0.648438 1.04687,1.0625001 0.28907,0.40625 0.50782,0.8710938 0.65625,1.3906251 l -1.79687,0.390625 c -0.0859,-0.3007813 -0.21094,-0.5781251 -0.375,-0.8281251 -0.16797,-0.2578125 -0.375,-0.484375 -0.625,-0.671875 -0.24219,-0.1875 -0.52344,-0.3320313 -0.84375,-0.4375 -0.3125,-0.1015625 -0.66797,-0.1562501 -1.0625,-0.1562501 -0.75,0 -1.375,0.1992188 -1.875,0.5937501 -0.5,0.3984375 -0.875,0.921875 -1.125,1.5781251 -0.25,0.6484375 -0.375,1.3671875 -0.375,2.1562501 0,0.78125 0.125,1.4960938 0.375,2.1406251 0.25,0.6484375 0.61719,1.1679688 1.10937,1.5625 0.5,0.3867188 1.12891,0.578125 1.89063,0.578125 0.39453,0 0.75391,-0.050781 1.07812,-0.15625 0.32032,-0.1015625 0.60938,-0.25 0.85938,-0.4375 0.25,-0.1953125 0.45703,-0.4296875 0.625,-0.703125 0.16406,-0.2695313 0.28906,-0.5625 0.375,-0.875 l 1.79687,0.40625 c -0.14843,0.5234375 -0.36718,0.9921875 -0.65625,1.40625 -0.28125,0.4179688 -0.63281,0.77734381 -1.04687,1.07812507 -0.41797,0.30468751 -0.88281,0.53125002 -1.39063,0.68750003 -0.51171,0.16406251 -1.05859,0.25000001 -1.64062,0.25000001 z m 11.95313,0 c -1.04297,0 -1.96094,-0.24609376 -2.75001,-0.73437503 -0.79296,-0.50000002 -1.40625,-1.19531258 -1.84375,-2.09375008 -0.4375,-0.8945313 -0.65625,-1.9296876 -0.65625,-3.1093751 0,-1.1953126 0.21875,-2.2421876 0.65625,-3.1406252 0.4375,-0.8945313 1.05079,-1.5859371 1.84375,-2.0781251 0.78907,-0.5 1.70704,-0.75 2.75001,-0.75 1.05078,0 1.97265,0.25 2.76562,0.75 0.78906,0.492188 1.40625,1.1835938 1.84375,2.0781251 0.4375,0.8984376 0.65625,1.9453126 0.65625,3.1406252 0,1.1796875 -0.21875,2.2148438 -0.65625,3.1093751 -0.4375,0.8984375 -1.05469,1.59375006 -1.84375,2.09375008 -0.79297,0.48828127 -1.71484,0.73437503 -2.76562,0.73437503 z m 0,-1.65625011 c 0.76953,0 1.40625,-0.1914062 1.90625,-0.578125 0.5,-0.3945312 0.875,-0.9140625 1.125,-1.5625 0.25,-0.6445313 0.375,-1.3593751 0.375,-2.1406251 0,-0.7812501 -0.125,-1.5000001 -0.375,-2.1562501 -0.25,-0.6562501 -0.625,-1.1796876 -1.125,-1.5781251 -0.5,-0.3945313 -1.13672,-0.5937501 -1.90625,-0.5937501 -0.75001,0 -1.37501,0.1992188 -1.87501,0.5937501 -0.5,0.3984375 -0.875,0.921875 -1.125,1.5781251 -0.25,0.6484375 -0.375,1.3671875 -0.375,2.1562501 0,0.78125 0.125,1.4960938 0.375,2.1406251 0.25,0.6484375 0.61719,1.1679688 1.10938,1.5625 0.5,0.3867188 1.12891,0.578125 1.89063,0.578125 z m 8.08203,1.4062501 V -15.514517 h 2.75 l 3.85937,9.8437503 c 0.0937,0.2304687 0.19531,0.515625 0.3125,0.859375 0.11328,0.3359375 0.23438,0.6992188 0.35938,1.09375 0.13281,0.3867188 0.25781,0.7734376 0.375,1.1562501 0.125,0.375 0.22656,0.71875 0.3125,1.03125 h -0.4375 c 0.082,-0.3007812 0.17968,-0.640625 0.29687,-1.015625 0.125,-0.375 0.25,-0.7539063 0.375,-1.1406251 0.13281,-0.3945312 0.25781,-0.765625 0.375,-1.109375 0.125,-0.3515625 0.22656,-0.6445313 0.3125,-0.875 l 3.79688,-9.8437503 h 2.76562 V 0.0011085 h -1.9375 v -8.8906254 c 0,-0.3203125 0,-0.6875 0,-1.09375 0.008,-0.4062501 0.0195,-0.8281251 0.0312,-1.2656251 0.008,-0.4375 0.0195,-0.878906 0.0312,-1.328125 0.008,-0.457031 0.0195,-0.898438 0.0312,-1.328125 h 0.1875 c -0.14844,0.480469 -0.30469,0.964844 -0.46875,1.453125 -0.16797,0.492188 -0.32812,0.960938 -0.48437,1.40625 -0.15625,0.449219 -0.30469,0.859375 -0.4375,1.2343751 -0.13672,0.3671875 -0.25,0.671875 -0.34375,0.921875 l -3.5,8.8906254 h -1.67188 l -3.54687,-8.8906254 c -0.10547,-0.25 -0.21875,-0.5507812 -0.34375,-0.90625 -0.125,-0.3632811 -0.26563,-0.7656251 -0.42188,-1.2031251 -0.15625,-0.445312 -0.32422,-0.914062 -0.5,-1.40625 -0.16797,-0.5 -0.33984,-1 -0.51562,-1.5 h 0.21875 c 0.0195,0.398437 0.0351,0.8125 0.0469,1.25 0.008,0.4375 0.0156,0.882813 0.0156,1.328125 0.008,0.449219 0.0156,0.882813 0.0156,1.296875 0.008,0.4179688 0.0156,0.7968751 0.0156,1.1406251 v 8.8906254 z m 22.10937,0.25000001 c -0.74219,0 -1.40625,-0.13671876 -2,-0.40625002 -0.59375,-0.26953126 -1.07031,-0.66406252 -1.42187,-1.18750009 -0.34375,-0.53125 -0.51563,-1.1757813 -0.51563,-1.9375 0,-0.6562501 0.12891,-1.1875001 0.39063,-1.5937501 0.25781,-0.4140625 0.60156,-0.7421875 1.03125,-0.984375 0.4375,-0.2382813 0.92187,-0.4140626 1.45312,-0.5312501 0.53125,-0.125 1.06641,-0.21875 1.60938,-0.28125 0.69531,-0.09375 1.25781,-0.1601562 1.6875,-0.203125 0.42578,-0.050781 0.74219,-0.1328125 0.95312,-0.25 0.20703,-0.1132813 0.3125,-0.3164063 0.3125,-0.609375 v -0.0625 c 0,-0.46875 -0.0937,-0.8671876 -0.28125,-1.2031251 -0.1875,-0.3320312 -0.46484,-0.5859375 -0.82812,-0.765625 -0.35547,-0.1757813 -0.79688,-0.2656251 -1.32813,-0.2656251 -0.55468,0 -1.02734,0.089844 -1.42187,0.2656251 -0.38672,0.1679687 -0.70313,0.3867188 -0.95313,0.65625 -0.25,0.2617188 -0.42187,0.5429688 -0.51562,0.8437501 l -1.79688,-0.4687501 c 0.22656,-0.7070312 0.58203,-1.2695311 1.0625,-1.6875001 0.47656,-0.425781 1.03125,-0.738281 1.65625,-0.9375 0.625,-0.195312 1.26563,-0.296875 1.92188,-0.296875 0.44531,0 0.92187,0.05859 1.42187,0.171875 0.5,0.117188 0.96875,0.3125 1.40625,0.59375 0.4375,0.28125 0.79688,0.6875 1.07813,1.2187501 0.28125,0.5234375 0.42187,1.1953125 0.42187,2.0156251 v 7.6562503 h -1.82812 v -1.5781251 h -0.10938 c -0.125,0.2734375 -0.33593,0.5468751 -0.625,0.82812507 -0.28125,0.28125001 -0.65234,0.52343752 -1.10937,0.71875003 -0.46094,0.18750001 -1.01563,0.28125001 -1.67188,0.28125001 z M 246.347,-1.3895166 c 0.69531,0 1.28125,-0.1328125 1.75,-0.40625 0.47656,-0.2695312 0.83594,-0.6171875 1.07812,-1.046875 0.25,-0.4257813 0.375,-0.8789063 0.375,-1.3593751 v -1.5625 c -0.0859,0.085937 -0.24609,0.1640625 -0.48437,0.234375 -0.24219,0.074219 -0.51563,0.1367187 -0.82813,0.1875 -0.3125,0.054687 -0.625,0.1015625 -0.9375,0.140625 -0.3125,0.042969 -0.57422,0.074219 -0.78125,0.09375 -0.44922,0.0625 -0.87109,0.1640625 -1.26562,0.296875 -0.38672,0.1367188 -0.69922,0.3359375 -0.9375,0.59375 -0.23047,0.25 -0.34375,0.59375 -0.34375,1.0312501 0,0.3867187 0.0976,0.7148437 0.29687,0.984375 0.20703,0.2734375 0.48828,0.4765625 0.84375,0.609375 0.35156,0.1367188 0.76563,0.203125 1.23438,0.203125 z m 8.1914,1.3906251 V -11.498892 h 1.78125 v 1.7656251 h 0.0937 c 0.21875,-0.5820311 0.58594,-1.0468751 1.10938,-1.3906251 0.53125,-0.351562 1.14062,-0.53125 1.82812,-0.53125 0.14454,0 0.30469,0.0078 0.48438,0.01563 0.1875,0 0.32812,0.0078 0.42187,0.01563 v 1.8593751 c -0.0547,-0.019531 -0.1875,-0.039063 -0.40625,-0.0625 -0.21875,-0.03125 -0.45312,-0.046875 -0.70312,-0.046875 -0.52344,0 -0.99609,0.1171875 -1.42188,0.34375 -0.41796,0.21875 -0.74609,0.53125 -0.98437,0.9375 -0.24219,0.3984376 -0.35938,0.8710938 -0.35938,1.4218751 v 7.1718753 z m 12.72657,-11.5000005 v 1.5781251 h -6 v -1.5781251 z m -4.21875,-2.8125 h 1.85937 v 11.3750004 c 0,0.4921875 0.0977,0.8515625 0.29688,1.078125 0.20703,0.2304688 0.55468,0.34375 1.04687,0.34375 0.125,0 0.27344,-0.00781 0.45313,-0.03125 0.1875,-0.019531 0.35937,-0.039063 0.51562,-0.0625 l 0.29688,1.5625001 c -0.1875,0.05078125 -0.40235,0.0859375 -0.64063,0.109375 -0.24219,0.03125 -0.47656,0.046875 -0.70312,0.046875 -1,0 -1.77344,-0.25000001 -2.3125,-0.75000003 -0.54297,-0.50781247 -0.8125,-1.22656257 -0.8125,-2.15625007 z m 7.82422,14.45312551 c -0.38672,0 -0.71485,-0.13671876 -0.98438,-0.40625002 -0.26172,-0.26953126 -0.39062,-0.59375003 -0.39062,-0.96875009 0,-0.3828125 0.1289,-0.7109375 0.39062,-0.984375 0.26953,-0.2695313 0.59766,-0.40625 0.98438,-0.40625 0.38281,0 0.71093,0.1367187 0.98437,0.40625 0.26953,0.2734375 0.40625,0.6015625 0.40625,0.984375 0,0.37500006 -0.13672,0.69921883 -0.40625,0.96875009 -0.27344,0.26953126 -0.60156,0.40625002 -0.98437,0.40625002 z m 0,0"
           style="fill:#000000;fill-opacity:1;fill-rule:nonzero;stroke:none"
           aria-label="Shop Smart. Shop EcoMart."
           transform="translate(113.08661,323.98327)" />
      </g>
    </g>
  </g>
</svg>
